<?xml version="1.0"?>
<svg xmlns="http://www.w3.org/2000/svg" xmlns:xlink="http://www.w3.org/1999/xlink" viewBox="0 0 438.400000 244.000000" width="219.200000mm" height="122.000000mm" version="1.1">
<rect x="1.000000" y="1.000000" width="437.400000" height="243.000000" rx="0" ry="0" style="stroke:none;fill:#cccccc;"/>
<rect x="0.000000" y="0.000000" width="437.400000" height="243.000000" rx="0" ry="0" style="stroke:none;fill:#ffffff;"/>
<text x="10.000000" y="7.000000" font-family="Arial" font-size="7"></text>
<rect x="49.000000" y="103.000000" width="38.700000" height="24.000000" rx="0" ry="0" style="stroke:none;fill:#cccccc;"/>
<rect x="48.000000" y="102.000000" width="38.700000" height="24.000000" rx="0" ry="0" style="stroke:none;fill:#47945E;"/>
<text x="67.350000" y="116.000000" font-family="Arial" font-size="7" text-anchor="middle" fill="#FFFFFF">[1] gain</text>
<circle cx="50.000000" cy="104.000000" r="1"/>
<line x1="45.000000" y1="113.000000" x2="48.000000" y2="114.000000"  transform="rotate(0.000000,48.000000,114.000000)" style="stroke: black; stroke-width:0.25;"/>
<line x1="45.000000" y1="115.000000" x2="48.000000" y2="114.000000"  transform="rotate(0.000000,48.000000,114.000000)" style="stroke: black; stroke-width:0.25;"/>
<rect x="131.700000" y="53.000000" width="167.700000" height="24.000000" rx="0" ry="0" style="stroke:none;fill:#cccccc;"/>
<rect x="130.700000" y="52.000000" width="167.700000" height="24.000000" rx="0" ry="0" style="stroke:none;fill:#477881;"/>
<text x="214.550000" y="66.000000" font-family="Arial" font-size="7" text-anchor="middle" fill="#FFFFFF">vslider(gain, 0.0f, 0.0f, 1.0f, 0.01f)</text>
<circle cx="132.700000" cy="54.000000" r="1"/>
<rect x="196.200000" y="85.000000" width="38.700000" height="24.000000" rx="0" ry="0" style="stroke:none;fill:#cccccc;"/>
<rect x="195.200000" y="84.000000" width="38.700000" height="24.000000" rx="0" ry="0" style="stroke:none;fill:#47945E;"/>
<text x="214.550000" y="98.000000" font-family="Arial" font-size="7" text-anchor="middle" fill="#FFFFFF">[1] gain</text>
<circle cx="197.200000" cy="86.000000" r="1"/>
<rect x="315.400000" y="69.000000" width="24.000000" height="24.000000" rx="0" ry="0" style="stroke:none;fill:#cccccc;"/>
<rect x="314.400000" y="68.000000" width="24.000000" height="24.000000" rx="0" ry="0" style="stroke:none;fill:#4B71A1;"/>
<text x="326.400000" y="82.000000" font-family="Arial" font-size="7" text-anchor="middle" fill="#FFFFFF">*</text>
<circle cx="316.400000" cy="70.000000" r="1"/>
<line x1="311.400000" y1="75.000000" x2="314.400000" y2="76.000000"  transform="rotate(0.000000,314.400000,76.000000)" style="stroke: black; stroke-width:0.25;"/>
<line x1="311.400000" y1="77.000000" x2="314.400000" y2="76.000000"  transform="rotate(0.000000,314.400000,76.000000)" style="stroke: black; stroke-width:0.25;"/>
<line x1="311.400000" y1="83.000000" x2="314.400000" y2="84.000000"  transform="rotate(0.000000,314.400000,84.000000)" style="stroke: black; stroke-width:0.25;"/>
<line x1="311.400000" y1="85.000000" x2="314.400000" y2="84.000000"  transform="rotate(0.000000,314.400000,84.000000)" style="stroke: black; stroke-width:0.25;"/>
<rect x="355.400000" y="65.000000" width="24.000000" height="24.000000" rx="0" ry="0" style="stroke:none;fill:#cccccc;"/>
<rect x="354.400000" y="64.000000" width="24.000000" height="24.000000" rx="0" ry="0" style="stroke:none;fill:#4B71A1;"/>
<text x="366.400000" y="78.000000" font-family="Arial" font-size="7" text-anchor="middle" fill="#FFFFFF">*</text>
<circle cx="356.400000" cy="66.000000" r="1"/>
<line x1="351.400000" y1="71.000000" x2="354.400000" y2="72.000000"  transform="rotate(0.000000,354.400000,72.000000)" style="stroke: black; stroke-width:0.25;"/>
<line x1="351.400000" y1="73.000000" x2="354.400000" y2="72.000000"  transform="rotate(0.000000,354.400000,72.000000)" style="stroke: black; stroke-width:0.25;"/>
<line x1="351.400000" y1="79.000000" x2="354.400000" y2="80.000000"  transform="rotate(0.000000,354.400000,80.000000)" style="stroke: black; stroke-width:0.25;"/>
<line x1="351.400000" y1="81.000000" x2="354.400000" y2="80.000000"  transform="rotate(0.000000,354.400000,80.000000)" style="stroke: black; stroke-width:0.25;"/>
<line x1="121.700000" y1="35.000000" x2="121.700000" y2="117.000000"  style="stroke: black; stroke-linecap:round; stroke-width:0.25; stroke-dasharray:3,3;"/>
<line x1="121.700000" y1="117.000000" x2="387.400000" y2="117.000000"  style="stroke: black; stroke-linecap:round; stroke-width:0.25; stroke-dasharray:3,3;"/>
<line x1="387.400000" y1="117.000000" x2="387.400000" y2="35.000000"  style="stroke: black; stroke-linecap:round; stroke-width:0.25; stroke-dasharray:3,3;"/>
<line x1="121.700000" y1="35.000000" x2="126.700000" y2="35.000000"  style="stroke: black; stroke-linecap:round; stroke-width:0.25; stroke-dasharray:3,3;"/>
<line x1="178.300000" y1="35.000000" x2="387.400000" y2="35.000000"  style="stroke: black; stroke-linecap:round; stroke-width:0.25; stroke-dasharray:3,3;"/>
<text x="126.700000" y="37.000000" font-family="Arial" font-size="7">vgroup(chan 0)</text>
<rect x="131.700000" y="145.000000" width="167.700000" height="24.000000" rx="0" ry="0" style="stroke:none;fill:#cccccc;"/>
<rect x="130.700000" y="144.000000" width="167.700000" height="24.000000" rx="0" ry="0" style="stroke:none;fill:#477881;"/>
<text x="214.550000" y="158.000000" font-family="Arial" font-size="7" text-anchor="middle" fill="#FFFFFF">vslider(gain, 0.0f, 0.0f, 1.0f, 0.01f)</text>
<circle cx="132.700000" cy="146.000000" r="1"/>
<rect x="196.200000" y="177.000000" width="38.700000" height="24.000000" rx="0" ry="0" style="stroke:none;fill:#cccccc;"/>
<rect x="195.200000" y="176.000000" width="38.700000" height="24.000000" rx="0" ry="0" style="stroke:none;fill:#47945E;"/>
<text x="214.550000" y="190.000000" font-family="Arial" font-size="7" text-anchor="middle" fill="#FFFFFF">[1] gain</text>
<circle cx="197.200000" cy="178.000000" r="1"/>
<rect x="315.400000" y="161.000000" width="24.000000" height="24.000000" rx="0" ry="0" style="stroke:none;fill:#cccccc;"/>
<rect x="314.400000" y="160.000000" width="24.000000" height="24.000000" rx="0" ry="0" style="stroke:none;fill:#4B71A1;"/>
<text x="326.400000" y="174.000000" font-family="Arial" font-size="7" text-anchor="middle" fill="#FFFFFF">*</text>
<circle cx="316.400000" cy="162.000000" r="1"/>
<line x1="311.400000" y1="167.000000" x2="314.400000" y2="168.000000"  transform="rotate(0.000000,314.400000,168.000000)" style="stroke: black; stroke-width:0.25;"/>
<line x1="311.400000" y1="169.000000" x2="314.400000" y2="168.000000"  transform="rotate(0.000000,314.400000,168.000000)" style="stroke: black; stroke-width:0.25;"/>
<line x1="311.400000" y1="175.000000" x2="314.400000" y2="176.000000"  transform="rotate(0.000000,314.400000,176.000000)" style="stroke: black; stroke-width:0.25;"/>
<line x1="311.400000" y1="177.000000" x2="314.400000" y2="176.000000"  transform="rotate(0.000000,314.400000,176.000000)" style="stroke: black; stroke-width:0.25;"/>
<rect x="355.400000" y="157.000000" width="24.000000" height="24.000000" rx="0" ry="0" style="stroke:none;fill:#cccccc;"/>
<rect x="354.400000" y="156.000000" width="24.000000" height="24.000000" rx="0" ry="0" style="stroke:none;fill:#4B71A1;"/>
<text x="366.400000" y="170.000000" font-family="Arial" font-size="7" text-anchor="middle" fill="#FFFFFF">*</text>
<circle cx="356.400000" cy="158.000000" r="1"/>
<line x1="351.400000" y1="163.000000" x2="354.400000" y2="164.000000"  transform="rotate(0.000000,354.400000,164.000000)" style="stroke: black; stroke-width:0.25;"/>
<line x1="351.400000" y1="165.000000" x2="354.400000" y2="164.000000"  transform="rotate(0.000000,354.400000,164.000000)" style="stroke: black; stroke-width:0.25;"/>
<line x1="351.400000" y1="171.000000" x2="354.400000" y2="172.000000"  transform="rotate(0.000000,354.400000,172.000000)" style="stroke: black; stroke-width:0.25;"/>
<line x1="351.400000" y1="173.000000" x2="354.400000" y2="172.000000"  transform="rotate(0.000000,354.400000,172.000000)" style="stroke: black; stroke-width:0.25;"/>
<line x1="121.700000" y1="127.000000" x2="121.700000" y2="209.000000"  style="stroke: black; stroke-linecap:round; stroke-width:0.25; stroke-dasharray:3,3;"/>
<line x1="121.700000" y1="209.000000" x2="387.400000" y2="209.000000"  style="stroke: black; stroke-linecap:round; stroke-width:0.25; stroke-dasharray:3,3;"/>
<line x1="387.400000" y1="209.000000" x2="387.400000" y2="127.000000"  style="stroke: black; stroke-linecap:round; stroke-width:0.25; stroke-dasharray:3,3;"/>
<line x1="121.700000" y1="127.000000" x2="126.700000" y2="127.000000"  style="stroke: black; stroke-linecap:round; stroke-width:0.25; stroke-dasharray:3,3;"/>
<line x1="178.300000" y1="127.000000" x2="387.400000" y2="127.000000"  style="stroke: black; stroke-linecap:round; stroke-width:0.25; stroke-dasharray:3,3;"/>
<text x="126.700000" y="129.000000" font-family="Arial" font-size="7">vgroup(chan 1)</text>
<line x1="111.700000" y1="25.000000" x2="111.700000" y2="219.000000"  style="stroke: black; stroke-linecap:round; stroke-width:0.25; stroke-dasharray:3,3;"/>
<line x1="111.700000" y1="219.000000" x2="397.400000" y2="219.000000"  style="stroke: black; stroke-linecap:round; stroke-width:0.25; stroke-dasharray:3,3;"/>
<line x1="397.400000" y1="219.000000" x2="397.400000" y2="25.000000"  style="stroke: black; stroke-linecap:round; stroke-width:0.25; stroke-dasharray:3,3;"/>
<line x1="111.700000" y1="25.000000" x2="116.700000" y2="25.000000"  style="stroke: black; stroke-linecap:round; stroke-width:0.25; stroke-dasharray:3,3;"/>
<line x1="165.075000" y1="25.000000" x2="397.400000" y2="25.000000"  style="stroke: black; stroke-linecap:round; stroke-width:0.25; stroke-dasharray:3,3;"/>
<text x="116.700000" y="27.000000" font-family="Arial" font-size="7">hgroup(mixer)</text>
<line x1="15.000000" y1="15.000000" x2="15.000000" y2="229.000000"  style="stroke: black; stroke-linecap:round; stroke-width:0.25; stroke-dasharray:3,3;"/>
<line x1="15.000000" y1="229.000000" x2="423.400000" y2="229.000000"  style="stroke: black; stroke-linecap:round; stroke-width:0.25; stroke-dasharray:3,3;"/>
<line x1="423.400000" y1="229.000000" x2="423.400000" y2="15.000000"  style="stroke: black; stroke-linecap:round; stroke-width:0.25; stroke-dasharray:3,3;"/>
<line x1="15.000000" y1="15.000000" x2="20.000000" y2="15.000000"  style="stroke: black; stroke-linecap:round; stroke-width:0.25; stroke-dasharray:3,3;"/>
<line x1="49.025000" y1="15.000000" x2="423.400000" y2="15.000000"  style="stroke: black; stroke-linecap:round; stroke-width:0.25; stroke-dasharray:3,3;"/>
<text x="20.000000" y="17.000000" font-family="Arial" font-size="7">process</text>
<line x1="425.400000" y1="117.000000" x2="428.400000" y2="118.000000"  transform="rotate(0.000000,428.400000,118.000000)" style="stroke: black; stroke-width:0.25;"/>
<line x1="425.400000" y1="119.000000" x2="428.400000" y2="118.000000"  transform="rotate(0.000000,428.400000,118.000000)" style="stroke: black; stroke-width:0.25;"/>
<line x1="425.400000" y1="125.000000" x2="428.400000" y2="126.000000"  transform="rotate(0.000000,428.400000,126.000000)" style="stroke: black; stroke-width:0.25;"/>
<line x1="425.400000" y1="127.000000" x2="428.400000" y2="126.000000"  transform="rotate(0.000000,428.400000,126.000000)" style="stroke: black; stroke-width:0.25;"/>
<line x1="10.000000" y1="114.000000" x2="20.000000" y2="114.000000"  style="stroke:black; stroke-linecap:round; stroke-width:0.25;"/>
<line x1="10.000000" y1="122.000000" x2="20.000000" y2="122.000000"  style="stroke:black; stroke-linecap:round; stroke-width:0.25;"/>
<line x1="10.000000" y1="130.000000" x2="20.000000" y2="130.000000"  style="stroke:black; stroke-linecap:round; stroke-width:0.25;"/>
<line x1="20.000000" y1="114.000000" x2="24.000000" y2="114.000000"  style="stroke:black; stroke-linecap:round; stroke-width:0.25;"/>
<line x1="20.000000" y1="122.000000" x2="24.000000" y2="122.000000"  style="stroke:black; stroke-linecap:round; stroke-width:0.25;"/>
<line x1="20.000000" y1="130.000000" x2="24.000000" y2="130.000000"  style="stroke:black; stroke-linecap:round; stroke-width:0.25;"/>
<line x1="24.000000" y1="114.000000" x2="28.000000" y2="114.000000"  style="stroke:black; stroke-linecap:round; stroke-width:0.25;"/>
<line x1="24.000000" y1="122.000000" x2="28.000000" y2="122.000000"  style="stroke:black; stroke-linecap:round; stroke-width:0.25;"/>
<line x1="24.000000" y1="130.000000" x2="28.000000" y2="130.000000"  style="stroke:black; stroke-linecap:round; stroke-width:0.25;"/>
<line x1="28.000000" y1="114.000000" x2="44.000000" y2="114.000000"  style="stroke:black; stroke-linecap:round; stroke-width:0.25;"/>
<line x1="28.000000" y1="122.000000" x2="44.000000" y2="122.000000"  style="stroke:black; stroke-linecap:round; stroke-width:0.25;"/>
<line x1="28.000000" y1="130.000000" x2="36.000000" y2="130.000000"  style="stroke:black; stroke-linecap:round; stroke-width:0.25;"/>
<line x1="36.000000" y1="130.000000" x2="36.000000" y2="142.000000"  style="stroke:black; stroke-linecap:round; stroke-width:0.25;"/>
<line x1="36.000000" y1="142.000000" x2="44.000000" y2="142.000000"  style="stroke:black; stroke-linecap:round; stroke-width:0.25;"/>
<line x1="44.000000" y1="114.000000" x2="48.000000" y2="114.000000"  style="stroke:black; stroke-linecap:round; stroke-width:0.25;"/>
<line x1="44.000000" y1="122.000000" x2="44.000000" y2="134.000000"  style="stroke:black; stroke-linecap:round; stroke-width:0.25;"/>
<line x1="44.000000" y1="134.000000" x2="44.000000" y2="134.000000"  style="stroke:black; stroke-linecap:round; stroke-width:0.25;"/>
<line x1="44.000000" y1="134.000000" x2="67.350000" y2="134.000000"  style="stroke:black; stroke-linecap:round; stroke-width:0.25;"/>
<line x1="44.000000" y1="142.000000" x2="67.350000" y2="142.000000"  style="stroke:black; stroke-linecap:round; stroke-width:0.25;"/>
<line x1="67.350000" y1="134.000000" x2="90.700000" y2="134.000000"  style="stroke:black; stroke-linecap:round; stroke-width:0.25;"/>
<line x1="67.350000" y1="142.000000" x2="90.700000" y2="142.000000"  style="stroke:black; stroke-linecap:round; stroke-width:0.25;"/>
<line x1="90.700000" y1="44.000000" x2="106.700000" y2="44.000000"  style="stroke:black; stroke-linecap:round; stroke-width:0.25;"/>
<line x1="90.700000" y1="134.000000" x2="90.700000" y2="44.000000"  style="stroke:black; stroke-linecap:round; stroke-width:0.25;"/>
<line x1="90.700000" y1="134.000000" x2="90.700000" y2="134.000000"  style="stroke:black; stroke-linecap:round; stroke-width:0.25;"/>
<line x1="90.700000" y1="142.000000" x2="98.700000" y2="142.000000"  style="stroke:black; stroke-linecap:round; stroke-width:0.25;"/>
<line x1="98.700000" y1="136.000000" x2="106.700000" y2="136.000000"  style="stroke:black; stroke-linecap:round; stroke-width:0.25;"/>
<line x1="98.700000" y1="142.000000" x2="98.700000" y2="136.000000"  style="stroke:black; stroke-linecap:round; stroke-width:0.25;"/>
<line x1="106.700000" y1="44.000000" x2="116.700000" y2="44.000000"  style="stroke:black; stroke-linecap:round; stroke-width:0.25;"/>
<line x1="106.700000" y1="136.000000" x2="116.700000" y2="136.000000"  style="stroke:black; stroke-linecap:round; stroke-width:0.25;"/>
<line x1="116.700000" y1="44.000000" x2="126.700000" y2="44.000000"  style="stroke:black; stroke-linecap:round; stroke-width:0.25;"/>
<line x1="116.700000" y1="136.000000" x2="126.700000" y2="136.000000"  style="stroke:black; stroke-linecap:round; stroke-width:0.25;"/>
<line x1="126.700000" y1="44.000000" x2="234.550000" y2="44.000000"  style="stroke:black; stroke-linecap:round; stroke-width:0.25;"/>
<line x1="126.700000" y1="136.000000" x2="234.550000" y2="136.000000"  style="stroke:black; stroke-linecap:round; stroke-width:0.25;"/>
<line x1="233.900000" y1="96.000000" x2="237.900000" y2="96.000000"  style="stroke:black; stroke-linecap:round; stroke-width:0.25;"/>
<line x1="233.900000" y1="188.000000" x2="237.900000" y2="188.000000"  style="stroke:black; stroke-linecap:round; stroke-width:0.25;"/>
<line x1="234.550000" y1="44.000000" x2="342.400000" y2="44.000000"  style="stroke:black; stroke-linecap:round; stroke-width:0.25;"/>
<line x1="234.550000" y1="136.000000" x2="342.400000" y2="136.000000"  style="stroke:black; stroke-linecap:round; stroke-width:0.25;"/>
<line x1="237.900000" y1="96.000000" x2="302.400000" y2="96.000000"  style="stroke:black; stroke-linecap:round; stroke-width:0.25;"/>
<line x1="237.900000" y1="188.000000" x2="302.400000" y2="188.000000"  style="stroke:black; stroke-linecap:round; stroke-width:0.25;"/>
<line x1="298.400000" y1="64.000000" x2="302.400000" y2="64.000000"  style="stroke:black; stroke-linecap:round; stroke-width:0.25;"/>
<line x1="298.400000" y1="156.000000" x2="302.400000" y2="156.000000"  style="stroke:black; stroke-linecap:round; stroke-width:0.25;"/>
<line x1="302.400000" y1="64.000000" x2="310.400000" y2="64.000000"  style="stroke:black; stroke-linecap:round; stroke-width:0.25;"/>
<line x1="302.400000" y1="84.000000" x2="310.400000" y2="84.000000"  style="stroke:black; stroke-linecap:round; stroke-width:0.25;"/>
<line x1="302.400000" y1="96.000000" x2="302.400000" y2="84.000000"  style="stroke:black; stroke-linecap:round; stroke-width:0.25;"/>
<line x1="302.400000" y1="96.000000" x2="302.400000" y2="96.000000"  style="stroke:black; stroke-linecap:round; stroke-width:0.25;"/>
<line x1="302.400000" y1="156.000000" x2="310.400000" y2="156.000000"  style="stroke:black; stroke-linecap:round; stroke-width:0.25;"/>
<line x1="302.400000" y1="176.000000" x2="310.400000" y2="176.000000"  style="stroke:black; stroke-linecap:round; stroke-width:0.25;"/>
<line x1="302.400000" y1="188.000000" x2="302.400000" y2="176.000000"  style="stroke:black; stroke-linecap:round; stroke-width:0.25;"/>
<line x1="302.400000" y1="188.000000" x2="302.400000" y2="188.000000"  style="stroke:black; stroke-linecap:round; stroke-width:0.25;"/>
<line x1="310.400000" y1="64.000000" x2="310.400000" y2="76.000000"  style="stroke:black; stroke-linecap:round; stroke-width:0.25;"/>
<line x1="310.400000" y1="76.000000" x2="310.400000" y2="76.000000"  style="stroke:black; stroke-linecap:round; stroke-width:0.25;"/>
<line x1="310.400000" y1="76.000000" x2="314.400000" y2="76.000000"  style="stroke:black; stroke-linecap:round; stroke-width:0.25;"/>
<line x1="310.400000" y1="84.000000" x2="314.400000" y2="84.000000"  style="stroke:black; stroke-linecap:round; stroke-width:0.25;"/>
<line x1="310.400000" y1="156.000000" x2="310.400000" y2="168.000000"  style="stroke:black; stroke-linecap:round; stroke-width:0.25;"/>
<line x1="310.400000" y1="168.000000" x2="310.400000" y2="168.000000"  style="stroke:black; stroke-linecap:round; stroke-width:0.25;"/>
<line x1="310.400000" y1="168.000000" x2="314.400000" y2="168.000000"  style="stroke:black; stroke-linecap:round; stroke-width:0.25;"/>
<line x1="310.400000" y1="176.000000" x2="314.400000" y2="176.000000"  style="stroke:black; stroke-linecap:round; stroke-width:0.25;"/>
<line x1="338.400000" y1="80.000000" x2="342.400000" y2="80.000000"  style="stroke:black; stroke-linecap:round; stroke-width:0.25;"/>
<line x1="338.400000" y1="172.000000" x2="342.400000" y2="172.000000"  style="stroke:black; stroke-linecap:round; stroke-width:0.25;"/>
<line x1="342.400000" y1="44.000000" x2="350.400000" y2="44.000000"  style="stroke:black; stroke-linecap:round; stroke-width:0.25;"/>
<line x1="342.400000" y1="80.000000" x2="350.400000" y2="80.000000"  style="stroke:black; stroke-linecap:round; stroke-width:0.25;"/>
<line x1="342.400000" y1="136.000000" x2="350.400000" y2="136.000000"  style="stroke:black; stroke-linecap:round; stroke-width:0.25;"/>
<line x1="342.400000" y1="172.000000" x2="350.400000" y2="172.000000"  style="stroke:black; stroke-linecap:round; stroke-width:0.25;"/>
<line x1="350.400000" y1="44.000000" x2="350.400000" y2="72.000000"  style="stroke:black; stroke-linecap:round; stroke-width:0.25;"/>
<line x1="350.400000" y1="72.000000" x2="350.400000" y2="72.000000"  style="stroke:black; stroke-linecap:round; stroke-width:0.25;"/>
<line x1="350.400000" y1="72.000000" x2="354.400000" y2="72.000000"  style="stroke:black; stroke-linecap:round; stroke-width:0.25;"/>
<line x1="350.400000" y1="80.000000" x2="354.400000" y2="80.000000"  style="stroke:black; stroke-linecap:round; stroke-width:0.25;"/>
<line x1="350.400000" y1="136.000000" x2="350.400000" y2="164.000000"  style="stroke:black; stroke-linecap:round; stroke-width:0.25;"/>
<line x1="350.400000" y1="164.000000" x2="350.400000" y2="164.000000"  style="stroke:black; stroke-linecap:round; stroke-width:0.25;"/>
<line x1="350.400000" y1="164.000000" x2="354.400000" y2="164.000000"  style="stroke:black; stroke-linecap:round; stroke-width:0.25;"/>
<line x1="350.400000" y1="172.000000" x2="354.400000" y2="172.000000"  style="stroke:black; stroke-linecap:round; stroke-width:0.25;"/>
<line x1="378.400000" y1="76.000000" x2="382.400000" y2="76.000000"  style="stroke:black; stroke-linecap:round; stroke-width:0.25;"/>
<line x1="378.400000" y1="168.000000" x2="382.400000" y2="168.000000"  style="stroke:black; stroke-linecap:round; stroke-width:0.25;"/>
<line x1="382.400000" y1="76.000000" x2="392.400000" y2="76.000000"  style="stroke:black; stroke-linecap:round; stroke-width:0.25;"/>
<line x1="382.400000" y1="168.000000" x2="392.400000" y2="168.000000"  style="stroke:black; stroke-linecap:round; stroke-width:0.25;"/>
<line x1="392.400000" y1="76.000000" x2="402.400000" y2="76.000000"  style="stroke:black; stroke-linecap:round; stroke-width:0.25;"/>
<line x1="392.400000" y1="168.000000" x2="402.400000" y2="168.000000"  style="stroke:black; stroke-linecap:round; stroke-width:0.25;"/>
<line x1="402.400000" y1="76.000000" x2="410.400000" y2="76.000000"  style="stroke:black; stroke-linecap:round; stroke-width:0.25;"/>
<line x1="402.400000" y1="126.000000" x2="410.400000" y2="126.000000"  style="stroke:black; stroke-linecap:round; stroke-width:0.25;"/>
<line x1="402.400000" y1="168.000000" x2="402.400000" y2="126.000000"  style="stroke:black; stroke-linecap:round; stroke-width:0.25;"/>
<line x1="402.400000" y1="168.000000" x2="402.400000" y2="168.000000"  style="stroke:black; stroke-linecap:round; stroke-width:0.25;"/>
<line x1="410.400000" y1="76.000000" x2="410.400000" y2="118.000000"  style="stroke:black; stroke-linecap:round; stroke-width:0.25;"/>
<line x1="410.400000" y1="118.000000" x2="410.400000" y2="118.000000"  style="stroke:black; stroke-linecap:round; stroke-width:0.25;"/>
<line x1="410.400000" y1="118.000000" x2="414.400000" y2="118.000000"  style="stroke:black; stroke-linecap:round; stroke-width:0.25;"/>
<line x1="410.400000" y1="126.000000" x2="414.400000" y2="126.000000"  style="stroke:black; stroke-linecap:round; stroke-width:0.25;"/>
<line x1="414.400000" y1="118.000000" x2="418.400000" y2="118.000000"  style="stroke:black; stroke-linecap:round; stroke-width:0.25;"/>
<line x1="414.400000" y1="126.000000" x2="418.400000" y2="126.000000"  style="stroke:black; stroke-linecap:round; stroke-width:0.25;"/>
<line x1="418.400000" y1="118.000000" x2="428.400000" y2="118.000000"  style="stroke:black; stroke-linecap:round; stroke-width:0.25;"/>
<line x1="418.400000" y1="126.000000" x2="428.400000" y2="126.000000"  style="stroke:black; stroke-linecap:round; stroke-width:0.25;"/>
</svg>
